<?xml version="1.0" encoding="utf-8"?>
<!-- Generator: Adobe Illustrator 25.2.2, SVG Export Plug-In . SVG Version: 6.00 Build 0)  -->
<svg version="1.1" id="Calque_1" xmlns="http://www.w3.org/2000/svg" xmlns:xlink="http://www.w3.org/1999/xlink" x="0px" y="0px"
	 viewBox="0 0 1575.58 441.36" style="enable-background:new 0 0 1575.58 441.36;" xml:space="preserve">
<style type="text/css">
	.st0{fill:#0000FF;}
</style>
<g>
	<path class="st0" d="M270.66,332.55v-210h44.4v210H270.66z"/>
	<path class="st0" d="M586.3,227.55c0,13.4-2.3,26.3-6.9,38.7c-4.6,12.4-11.2,22.9-19.8,31.5c-6.8,7-14.05,12.8-21.75,17.4
		c-7.7,4.6-16.1,8.3-25.2,11.1c-9.1,2.8-18.95,4.8-29.55,6c-10.6,1.2-22.2,1.8-34.8,1.8c-14,0-28.4-0.15-43.2-0.45
		c-14.8-0.3-30-0.65-45.6-1.05v-210c15.6-0.4,30.8-0.75,45.6-1.05c14.8-0.3,29.2-0.45,43.2-0.45c12.6,0,24.2,0.6,34.8,1.8
		c10.6,1.2,20.45,3.25,29.55,6.15c9.1,2.9,17.5,6.65,25.2,11.25c7.7,4.6,14.95,10.3,21.75,17.1c8.6,8.6,15.2,19.1,19.8,31.5
		C584,201.25,586.3,214.15,586.3,227.55z M540.1,227.4c0-18.84-5.9-34.18-17.7-46c-4.8-4.81-9.95-8.52-15.45-11.13
		c-5.5-2.61-11.35-4.56-17.55-5.86c-6.2-1.3-12.8-2.1-19.8-2.4c-7-0.3-14.3-0.45-21.9-0.45c-7.4,0-14.6,0-21.6,0
		c-7,0-14.4,0.1-22.2,0.3v131.1c7.8,0.2,15.2,0.35,22.2,0.45c7,0.1,14.2,0.15,21.6,0.15c7.6,0,14.9-0.15,21.9-0.45
		c7-0.3,13.6-1.15,19.8-2.55c6.2-1.4,12.05-3.41,17.55-6.01c5.5-2.61,10.65-6.31,15.45-11.13C534.2,261.58,540.1,246.24,540.1,227.4
		z"/>
	<path class="st0" d="M695.75,300.15c5.6,0,11.15-0.65,16.65-1.95c5.5-1.3,10.45-3.2,14.85-5.7c4.4-2.5,7.95-5.55,10.65-9.15
		c2.7-3.6,4.05-7.7,4.05-12.3c0-5-1.55-9.2-4.65-12.6c-3.1-3.4-7.25-6.1-12.45-8.1c-5.2-2-11.2-3.4-18-4.2c-6.8-0.8-13.8-1.2-21-1.2
		h-18.9v-36h18.9c7.2,0,13.95-0.55,20.25-1.65c6.3-1.1,11.75-2.85,16.35-5.25c4.6-2.4,8.2-5.4,10.8-9c2.6-3.6,3.9-7.9,3.9-12.9
		c0-3.8-1.15-7.3-3.45-10.5c-2.3-3.2-5.3-5.85-9-7.95c-3.7-2.1-8-3.75-12.9-4.95c-4.9-1.2-9.95-1.8-15.15-1.8
		c-12,0-22.75,2.35-32.25,7.05c-9.5,4.7-18.05,10.55-25.65,17.55l-29.1-27.3c12.2-11.4,25.8-19.9,40.8-25.5
		c15-5.6,31.3-8.4,48.9-8.4c11,0,21.45,1.2,31.35,3.6c9.9,2.4,18.6,6.1,26.1,11.1c7.5,5,13.5,11.2,18,18.6
		c4.5,7.4,6.75,16,6.75,25.8c0,12.4-3.3,22.15-9.9,29.25c-6.6,7.1-15.5,13.15-26.7,18.15v0.9c12.6,2.8,22.75,8.65,30.45,17.55
		c7.7,8.9,11.55,19.45,11.55,31.65c0,10-2.3,18.85-6.9,26.55c-4.6,7.7-10.9,14.15-18.9,19.35c-8,5.2-17.25,9.15-27.75,11.85
		c-10.5,2.7-21.65,4.05-33.45,4.05c-18.6,0-35.95-2.5-52.05-7.5c-16.1-5-30.15-12.6-42.15-22.8l24.9-31.8
		c9.4,8,19.3,14.25,29.7,18.75C670.75,297.9,682.55,300.15,695.75,300.15z"/>
	<path class="st0" d="M910.85,193.35c11.8,0,22.75,1.45,32.85,4.35c10.1,2.9,18.85,7.25,26.25,13.05c7.4,5.8,13.2,13.05,17.4,21.75
		s6.3,18.75,6.3,30.15c0,10.8-2.35,20.7-7.05,29.7c-4.7,9-11.25,16.8-19.65,23.4c-8.4,6.6-18.5,11.75-30.3,15.45
		c-11.8,3.7-24.8,5.55-39,5.55c-16.4,0-30.55-2.3-42.45-6.9c-11.9-4.6-21.75-11.2-29.55-19.8c-7.8-8.6-13.55-19.05-17.25-31.35
		c-3.7-12.3-5.55-26.25-5.55-41.85c0-16,2.45-31.2,7.35-45.6c4.9-14.4,11.95-27,21.15-37.8c9.2-10.8,20.5-19.35,33.9-25.65
		c13.4-6.3,28.6-9.45,45.6-9.45c15.4,0,29.5,1.75,42.3,5.25c12.8,3.5,24.9,8.45,36.3,14.85l-22.2,32.4
		c-9.2-5.2-18.15-9.15-26.85-11.85c-8.7-2.7-17.85-4.05-27.45-4.05c-19.4,0-34.3,5.05-44.7,15.15c-10.4,10.1-16.9,24.55-19.5,43.35
		c9.2-7,18.85-12.1,28.95-15.3C887.8,194.95,898.85,193.35,910.85,193.35z M899.45,302.25c15.2,0,27.2-3.16,36-9.49
		c8.8-6.32,13.2-15.51,13.2-27.56c0-11.85-4.4-20.93-13.2-27.26c-8.8-6.32-20.8-9.49-36-9.49c-15.2,0-27.2,3.16-36,9.49
		c-8.8,6.33-13.2,15.41-13.2,27.26c0,12.05,4.4,21.24,13.2,27.56C872.25,299.09,884.25,302.25,899.45,302.25z"/>
	<path class="st0" d="M1223.15,227.55c0,14.2-2.4,27.9-7.21,41.1c-4.81,13.2-11.77,24.85-20.88,34.95
		c-9.11,10.1-20.38,18.15-33.8,24.15c-13.42,6-28.64,9-45.67,9c-17.23,0-32.5-3-45.82-9c-13.32-6-24.53-14.05-33.65-24.15
		c-9.11-10.1-16.07-21.75-20.88-34.95c-4.81-13.2-7.21-26.9-7.21-41.1c0-14.2,2.4-27.9,7.21-41.1c4.8-13.2,11.77-24.85,20.88-34.95
		c9.11-10.1,20.33-18.15,33.65-24.15c13.32-6,28.59-9,45.82-9c17.03,0,32.25,3,45.67,9c13.42,6,24.68,14.05,33.8,24.15
		c9.11,10.1,16.07,21.75,20.88,34.95C1220.74,199.65,1223.15,213.35,1223.15,227.55z M1053.65,227.55c0,8.4,1.1,16.85,3.3,25.35
		c2.2,8.5,5.75,16.1,10.65,22.8c4.9,6.7,11.25,12.15,19.05,16.35c7.8,4.2,17.4,6.3,28.8,6.3s21-2.1,28.8-6.3
		c7.8-4.2,14.1-9.65,18.9-16.35c4.8-6.7,8.3-14.3,10.5-22.8c2.2-8.5,3.3-16.95,3.3-25.35s-1.1-16.85-3.3-25.35
		c-2.2-8.5-5.7-16.1-10.5-22.8c-4.8-6.7-11.1-12.15-18.9-16.35c-7.8-4.2-17.4-6.3-28.8-6.3s-21,2.1-28.8,6.3
		c-7.8,4.2-14.15,9.65-19.05,16.35c-4.9,6.7-8.45,14.3-10.65,22.8C1054.74,210.7,1053.65,219.15,1053.65,227.55z"/>
</g>
</svg>
